<?xml version="1.0" encoding="UTF-8"?> <svg xmlns="http://www.w3.org/2000/svg" width="505" height="505" viewBox="0 0 505 505" fill="none"> <path d="M461.5 251.5L460 368.5C457.5 374.5 448 370.5 446 370C444.4 369.6 436.667 357.833 433 352L428 340.5L429.5 309L393 307C393 307 385 313 381 313C377.8 313 371.667 311.333 369 310.5L357.5 299C357.5 299 360.333 293.333 362 292.5L354 268L342.5 232.5C312.833 273.667 251.3 358.2 250.5 359C249.7 359.8 245.833 361.333 244 362C244 362 244.5 366.333 244 367.5C241.833 372.167 236.7 382.4 233.5 386C230.3 389.6 225.833 390.167 224 390L169 387C161.667 386.667 146.7 385.9 145.5 385.5C144.3 385.1 140.333 376.667 138.5 372.5C134.833 364.167 124.4 344.4 112 332C96.5 316.5 81 308.5 76.5 306.5C72.9 304.9 73.6667 301.5 74.5 300C86.6667 289.333 112.2 267.6 117 266C121.8 264.4 126.667 264 128.5 264C128.5 264 130.5 253.5 132.5 252C185.333 209.667 292 124.1 296 120.5C300 116.9 307.667 115 311 114.5C327.5 114.833 362 115.6 368 116C374 116.4 377.167 118.5 378 119.5C381.333 131.167 388.3 155.7 389.5 160.5C390.7 165.3 390.667 168.833 390.5 170L349 223.5L372 288.5C372 288.5 382.5 288 388 289C392.4 289.8 394.167 295.333 394.5 298L429 299.5C429.167 294.667 429.5 284 429.5 280C429.5 276 430.833 270.333 431.5 268L447 249.5C448.833 249 453.5 248 457.5 248C461.5 248 461.833 250.333 461.5 251.5Z" fill="white"></path> <path fill-rule="evenodd" clip-rule="evenodd" d="M385.826 141.573L391.056 162.759C391.784 165.868 392.044 167.974 391.413 170.195C390.896 172.011 389.755 173.919 387.637 176.526C382.608 182.65 377.27 189.408 371.665 196.568C360.235 211.169 347.803 227.523 335.439 244.199C316.668 269.516 298.021 295.547 282.842 316.983C274.093 329.34 266.47 340.15 260.724 348.477C257.458 353.188 254.812 356.571 252.225 358.924C249.612 361.3 247.046 362.665 243.987 363.286C243.353 363.42 242.731 363.013 242.598 362.378C242.465 361.743 242.871 361.12 243.505 360.987C246.138 360.414 248.33 359.191 250.554 357.107C252.997 354.818 255.458 351.523 258.511 346.963C264.164 338.56 271.606 327.606 280.279 315.175C295.323 293.614 313.989 267.558 332.775 242.216C345.158 225.512 357.58 209.105 369.151 194.575C374.833 187.441 380.334 180.779 385.469 174.712C387.329 172.538 388.393 170.97 388.873 169.434C389.44 167.616 389.175 165.875 388.639 163.295L384.101 141.975C383.99 141.497 384.287 141.02 384.763 140.909C385.239 140.798 385.716 141.096 385.826 141.573Z" fill="#1D1D1D"></path> <path fill-rule="evenodd" clip-rule="evenodd" d="M381.117 132.491L378.75 124.384C377.986 122.048 377.001 120.127 375.068 118.866C373.546 117.872 371.453 117.308 368.492 117.195C364.822 117.045 355.062 116.735 344.597 116.439C339.23 116.287 333.678 116.136 328.668 116.028C320.57 115.852 313.904 115.773 311.816 116.026C308.795 116.388 306.473 116.803 304.09 117.809C302.042 118.674 299.952 119.974 297.326 122.015C295.08 123.758 276.172 139 251.974 158.445C230.766 175.486 205.523 195.785 183.862 213.057C176.896 218.612 170.295 223.844 164.322 228.562C148.136 241.346 136.565 250.354 134.757 251.609C132.583 253.113 131.209 254.954 130.349 256.734C128.684 260.184 128.913 263.38 128.913 263.38C128.961 263.959 128.531 264.467 127.954 264.515C127.377 264.564 126.869 264.133 126.821 263.555C126.821 263.555 126.482 259.836 128.355 255.788C129.328 253.687 130.894 251.499 133.408 249.69C135.587 248.128 152.056 234.704 173.8 217.113C186.145 207.126 200.207 195.822 214.26 184.507C253.129 153.211 292.03 121.954 295.313 119.409C298.226 117.156 300.554 115.741 302.825 114.789C305.484 113.675 308.067 113.193 311.436 112.8C314.055 112.498 323.697 112.659 334.451 113.066C348.187 113.587 363.751 114.478 368.617 114.78C372.105 115.009 374.536 115.807 376.299 117.028C378.601 118.62 379.814 120.928 380.664 123.784L382.828 132.034C382.954 132.507 382.673 132.994 382.201 133.12C381.728 133.246 381.243 132.965 381.117 132.491Z" fill="#1D1D1D"></path> <path fill-rule="evenodd" clip-rule="evenodd" d="M199.067 266.145C203.464 266.596 206.759 266.707 209.559 268.214C212.05 269.554 214.189 271.974 216.3 276.746C218.429 281.572 224.959 300.048 231.233 318.595C237.55 337.266 243.608 356.006 244.962 360.838C245.68 363.424 246.009 365.194 245.804 367.054C245.564 369.222 244.572 371.542 242.358 375.512C239.21 381.149 235.728 385.726 232.562 388.506C229.907 390.837 227.364 391.912 225.347 391.707C219.182 391.079 203.701 390.176 187.822 389.44C173.388 388.771 158.626 388.24 150.225 388.186C147.571 388.168 145.871 387.511 144.63 386.535C143.202 385.411 142.385 383.788 141.512 381.915C133.768 365.307 125.927 351.382 116.496 339.697C106.367 327.148 94.4012 317.194 78.7301 309.281C76.3708 308.089 74.7056 306.886 73.7132 305.686C72.8882 304.689 72.4726 303.662 72.4089 302.615C72.3027 300.876 73.2172 298.94 75.534 296.899C77.959 294.766 85.281 288.631 93.0519 282.27C99.5508 276.95 106.366 271.474 110.866 268.019C113.971 265.641 116.836 264.322 119.659 263.591C122.819 262.772 125.927 262.696 129.284 262.711C131.247 262.721 138.368 262.943 147.023 263.249C164.523 263.868 188.311 264.813 188.311 264.813C188.89 264.833 189.344 265.32 189.325 265.9C189.305 266.48 188.82 266.935 188.241 266.916C188.241 266.916 169.345 266.403 152.845 265.986C141.711 265.705 131.671 265.465 129.285 265.478C126.179 265.493 123.302 265.567 120.386 266.353C117.898 267.023 115.386 268.224 112.664 270.351C108.206 273.825 101.468 279.34 95.0239 284.675C87.3255 291.048 80.0516 297.168 77.6462 299.301C76.8246 300.027 76.2283 300.701 75.8831 301.359C75.5698 301.955 75.5198 302.514 75.794 303.056C76.3869 304.228 77.9057 305.257 80.1769 306.399C96.3052 314.51 108.63 324.724 119.06 337.617C128.659 349.482 136.649 363.626 144.531 380.501C145.163 381.856 145.657 383.094 146.69 383.906C147.473 384.522 148.574 384.831 150.247 384.842C158.678 384.9 173.492 385.437 187.977 386.116C203.932 386.865 219.487 387.786 225.682 388.422C226.413 388.498 227.228 388.201 228.123 387.692C229.32 387.011 230.601 385.942 231.925 384.566C234.442 381.953 237.076 378.267 239.515 373.915C241.427 370.509 242.377 368.556 242.588 366.693C242.758 365.197 242.431 363.78 241.859 361.697C240.948 358.362 237.79 348.393 233.937 336.378C231.376 328.395 228.513 319.51 225.757 311.076C220.71 295.638 216.044 281.707 214.315 277.606C212.539 273.38 210.777 271.16 208.611 269.942C206.032 268.491 202.953 268.406 198.869 267.909C198.383 267.855 198.033 267.415 198.087 266.928C198.142 266.441 198.58 266.091 199.067 266.145Z" fill="#1D1D1D"></path> <path fill-rule="evenodd" clip-rule="evenodd" d="M228.711 375.685C227.62 368.436 225.211 360.836 221.782 353.259C219.68 348.616 217.185 343.99 214.346 339.463C207.582 328.676 198.818 318.483 188.428 310.373C186.978 309.239 185.407 308.341 183.776 307.694C182.089 307.023 180.337 306.622 178.593 306.508C174.684 306.25 167.767 306.002 159.37 305.748C147.964 305.403 133.835 305.117 120.8 304.772C100.135 304.226 82.2204 303.649 82.2204 303.649C81.6412 303.641 81.177 303.163 81.1853 302.583C81.1932 302.002 81.67 301.538 82.2492 301.546C82.2492 301.546 94.9005 301.502 111.205 301.611C117.287 301.652 123.877 301.718 130.508 301.82C150.498 302.127 170.854 302.667 178.81 303.174C180.894 303.31 182.989 303.787 185.006 304.589C186.924 305.352 188.773 306.41 190.477 307.747C201.143 316.134 210.249 326.582 217.057 337.784C219.909 342.477 222.352 347.303 224.349 352.145C227.606 360.039 229.669 367.973 230.468 375.458C230.53 375.944 230.187 376.389 229.702 376.452C229.217 376.514 228.773 376.171 228.711 375.685Z" fill="#1D1D1D"></path> <path fill-rule="evenodd" clip-rule="evenodd" d="M369.898 125.422C369.898 125.422 354.446 140.54 333.589 160.87C322.491 171.686 309.878 183.993 297.224 196.258C260.786 231.574 224.207 266.741 224.207 266.741C223.914 267.024 223.446 267.016 223.163 266.723C222.879 266.43 222.887 265.961 223.18 265.677C223.18 265.677 259.48 230.221 295.923 194.912C308.58 182.649 321.277 170.429 332.437 159.677C353.412 139.469 369.008 124.5 369.008 124.5C369.262 124.255 369.667 124.262 369.913 124.516C370.159 124.77 370.152 125.176 369.898 125.422Z" fill="#1D1D1D"></path> <path fill-rule="evenodd" clip-rule="evenodd" d="M189.5 299.069C189.5 299.069 192.946 295.134 196.82 290.829C197.866 289.666 198.942 288.474 200.001 287.337C203.804 283.256 207.241 279.738 207.241 279.738C207.524 279.432 208.001 279.412 208.307 279.696C208.613 279.979 208.632 280.458 208.35 280.764C208.35 280.764 205.12 284.474 201.358 288.594C200.311 289.741 199.21 290.91 198.136 292.046C194.156 296.254 190.512 300.006 190.512 300.006C190.254 300.286 189.818 300.303 189.539 300.044C189.26 299.786 189.242 299.349 189.5 299.069Z" fill="#1D1D1D"></path> <path fill-rule="evenodd" clip-rule="evenodd" d="M147.104 304.803C145.011 312.509 146.003 323.244 149.656 333.606C152.907 342.831 158.277 351.769 165.594 358.019C176.097 367.054 186.065 366.668 192.983 361.514C200.616 355.828 204.542 344.548 201.474 333.963C201.341 333.525 201.589 333.061 202.027 332.929C202.465 332.797 202.928 333.045 203.06 333.483C206.619 344.839 202.529 357.097 194.399 363.386C186.79 369.271 175.637 370.069 163.78 360.166C156.035 353.649 150.282 344.308 146.801 334.627C142.845 323.622 141.845 312.187 144.031 303.974C144.259 303.124 145.133 302.62 145.981 302.849C146.829 303.078 147.332 303.953 147.104 304.803Z" fill="#1D1D1D"></path> <path fill-rule="evenodd" clip-rule="evenodd" d="M126.358 303.487L141.037 352.469C141.124 352.745 140.97 353.041 140.693 353.127C140.417 353.214 140.122 353.059 140.036 352.782L124.26 304.144C124.079 303.564 124.402 302.946 124.98 302.765C125.56 302.583 126.177 302.907 126.358 303.487Z" fill="#1D1D1D"></path> <path fill-rule="evenodd" clip-rule="evenodd" d="M188.527 350.618C184.521 354.336 178.177 354.412 171.929 350.12C170.319 349.014 168.719 347.607 167.192 345.887C166.303 344.885 165.445 343.772 164.621 342.552C163.267 340.549 162.003 338.26 160.869 335.68C159.892 333.456 159.024 331.015 158.259 328.358C158.17 328.081 158.321 327.785 158.596 327.694C158.871 327.605 159.168 327.756 159.258 328.031C161.21 333.487 163.64 337.905 166.215 341.43C167.036 342.554 167.87 343.587 168.71 344.534C170.131 346.137 171.577 347.483 173.035 348.57C178.5 352.647 184.125 353.047 187.911 349.913C188.105 349.743 188.401 349.763 188.571 349.957C188.741 350.152 188.721 350.448 188.527 350.618Z" fill="#1D1D1D"></path> <path fill-rule="evenodd" clip-rule="evenodd" d="M363.932 154.857C363.932 154.857 365.586 158.644 366.949 164.628C367.611 167.531 368.139 170.954 368.495 174.683C368.549 175.083 368.269 175.451 367.869 175.505C367.47 175.559 367.102 175.278 367.048 174.878C366.42 171.262 365.551 167.987 364.781 165.174C363.214 159.447 361.779 155.747 361.779 155.747C361.534 155.152 361.817 154.469 362.411 154.223C363.006 153.978 363.687 154.262 363.932 154.857Z" fill="#1D1D1D"></path> <path fill-rule="evenodd" clip-rule="evenodd" d="M356.932 161.647C356.932 161.647 358.674 165.745 360.121 172.212C360.822 175.347 361.389 179.043 361.772 183.07C361.825 183.47 361.544 183.838 361.144 183.891C360.744 183.943 360.378 183.661 360.325 183.261C359.668 179.345 358.76 175.793 357.949 172.746C356.296 166.531 354.771 162.52 354.771 162.52C354.531 161.923 354.82 161.242 355.416 161.001C356.012 160.76 356.691 161.05 356.932 161.647Z" fill="#1D1D1D"></path> <path fill-rule="evenodd" clip-rule="evenodd" d="M349.225 168.603C349.225 168.603 351.036 172.949 352.548 179.806C353.281 183.127 353.878 187.042 354.283 191.308C354.335 191.708 354.052 192.076 353.652 192.127C353.253 192.179 352.887 191.896 352.835 191.495C352.156 187.339 351.217 183.565 350.375 180.33C348.654 173.723 347.059 169.462 347.059 169.462C346.823 168.863 347.116 168.184 347.713 167.947C348.311 167.71 348.988 168.004 349.225 168.603Z" fill="#1D1D1D"></path> <path fill-rule="evenodd" clip-rule="evenodd" d="M350.48 223.334C350.48 223.334 356.058 239.183 361.465 255.089C366.873 271 372.109 286.965 372.109 286.965C372.242 287.346 372.042 287.763 371.662 287.897C371.282 288.03 370.865 287.829 370.731 287.449C370.731 287.449 364.871 271.703 359.181 255.892C353.491 240.084 347.971 224.215 347.971 224.215C347.729 223.522 348.094 222.761 348.786 222.519C349.478 222.275 350.237 222.641 350.48 223.334Z" fill="#1D1D1D"></path> <path fill-rule="evenodd" clip-rule="evenodd" d="M344.917 239.327C344.917 239.327 347.911 247.413 351.627 257.749C353.025 261.64 354.537 265.844 355.996 270.068C357.455 274.291 358.867 278.53 360.161 282.456C363.599 292.889 366.188 301.115 366.188 301.115C366.319 301.497 366.116 301.913 365.735 302.044C365.354 302.176 364.939 301.973 364.807 301.591C364.807 301.591 361.789 293.514 358.081 283.174C356.686 279.283 355.192 275.072 353.744 270.845C352.296 266.618 350.902 262.373 349.611 258.445C346.182 248.01 343.568 239.792 343.568 239.792C343.44 239.419 343.638 239.012 344.01 238.884C344.382 238.755 344.789 238.954 344.917 239.327Z" fill="#1D1D1D"></path> <path fill-rule="evenodd" clip-rule="evenodd" d="M368.095 310.235C363.739 305.489 363.134 300.47 364.437 296.277C366.087 290.971 370.854 287.021 374.992 286.676C375.679 286.617 376.544 286.588 377.492 286.582C378.651 286.575 379.938 286.6 381.168 286.657C385.83 286.848 389.262 288.147 391.601 290.217C394.363 292.661 395.657 296.213 395.494 300.58C395.333 305.953 392.993 309.365 389.806 311.446C386.347 313.705 381.802 314.346 377.76 314.044C375.498 313.881 373.464 313.399 371.743 312.66C370.293 312.037 369.069 311.213 368.095 310.235ZM370.395 308.031C371.24 308.954 372.388 309.697 373.767 310.242C375.021 310.738 376.452 311.085 378.018 311.263C381.511 311.652 385.487 311.305 388.547 309.442C391.251 307.795 393.193 304.957 393.446 300.491C393.628 296.799 392.665 293.728 390.328 291.662C388.272 289.842 385.197 288.831 381.097 288.714C380.109 288.691 379.085 288.685 378.124 288.705C377.013 288.728 375.988 288.784 375.211 288.873C371.862 289.262 368.162 292.668 366.978 297.02C366.057 300.406 366.768 304.379 370.395 308.031Z" fill="#1D1D1D"></path> <path fill-rule="evenodd" clip-rule="evenodd" d="M378.624 290.972C377.11 291.387 375.123 292.33 373.71 294.304C372.761 295.629 372.082 297.429 372.022 299.907C371.872 301.891 372.395 303.639 373.235 305.082C374.245 306.816 375.702 308.135 377.173 308.814C377.437 308.923 377.563 309.225 377.455 309.49C377.347 309.754 377.044 309.881 376.781 309.772C375.039 309.14 373.209 307.806 371.935 305.896C370.834 304.246 370.182 302.169 370.272 299.807C370.527 296.953 371.432 294.907 372.658 293.476C374.419 291.421 376.761 290.622 378.489 290.345C378.662 290.308 378.832 290.418 378.87 290.591C378.907 290.764 378.797 290.934 378.624 290.972Z" fill="#1D1D1D"></path> <path fill-rule="evenodd" clip-rule="evenodd" d="M369.319 310.811C366.957 311.585 364.741 311.509 362.758 310.862C361.791 310.546 360.913 310.062 360.105 309.469C358.756 308.478 357.659 307.136 356.919 305.575C356.632 304.972 356.416 304.326 356.266 303.659C356.05 302.7 355.968 301.699 356.004 300.672C356.131 298.875 356.512 297.453 357.077 296.352C358.318 293.936 360.033 293.078 360.033 293.078C360.271 292.92 360.592 292.986 360.749 293.224C360.907 293.462 360.841 293.784 360.604 293.941C360.604 293.941 359.514 294.969 358.968 297.075C358.722 298.024 358.629 299.181 358.805 300.597C358.865 301.254 359.018 301.878 359.181 302.492C359.346 303.112 359.569 303.702 359.812 304.275C360.317 305.463 360.964 306.549 361.843 307.438C362.937 308.544 364.241 309.422 365.849 309.845C366.887 310.119 367.985 310.263 369.196 310.182C369.369 310.148 369.537 310.261 369.571 310.435C369.605 310.609 369.492 310.777 369.319 310.811Z" fill="#1D1D1D"></path> <path fill-rule="evenodd" clip-rule="evenodd" d="M377.23 296.154C378.43 293.942 380.572 292.789 382.777 292.706C384.184 292.654 385.613 293.086 386.854 293.96C387.6 294.486 388.249 295.207 388.805 296.071C389.947 298.119 390.111 300.174 389.624 301.935C389.008 304.157 387.475 305.865 386.118 306.456C385.866 306.589 385.553 306.493 385.419 306.24C385.285 305.988 385.382 305.674 385.633 305.541C386.626 304.91 387.545 303.363 387.812 301.551C388.008 300.22 387.794 298.731 386.818 297.308C386.443 296.681 385.984 296.173 385.484 295.759C384.649 295.069 383.703 294.634 382.705 294.516C380.915 294.304 379.061 294.921 377.761 296.512C377.662 296.658 377.464 296.698 377.317 296.599C377.17 296.5 377.132 296.301 377.23 296.154Z" fill="#1D1D1D"></path> <path fill-rule="evenodd" clip-rule="evenodd" d="M394.947 296.523C394.947 296.523 408.154 297.229 420.472 297.825C427.153 298.148 433.572 298.442 437.478 298.56C440.555 298.655 442.1 301.688 441.931 304.827C441.762 307.974 439.865 310.887 436.985 310.712L393.048 307.911C392.524 307.881 392.124 307.429 392.155 306.904C392.187 306.378 392.638 305.977 393.161 306.009L437.117 308.406C437.88 308.447 438.441 307.981 438.837 307.346C439.291 306.617 439.537 305.663 439.583 304.707C439.67 302.931 439.149 300.988 437.409 300.941C433.493 300.832 427.056 300.562 420.358 300.25C408.031 299.675 394.817 298.968 394.817 298.968C394.143 298.932 393.626 298.355 393.662 297.68C393.698 297.005 394.274 296.487 394.947 296.523Z" fill="#1D1D1D"></path> <path fill-rule="evenodd" clip-rule="evenodd" d="M427.974 299.053L428.456 278.294C428.55 276.339 428.674 273.282 429.645 270.221C430.197 268.479 431.022 266.74 432.247 265.18C434.323 262.538 438.049 257.674 441.135 253.915C442.85 251.828 444.377 250.077 445.339 249.189C446.736 247.898 448.46 247.217 450.466 246.909C452.656 246.573 455.213 246.698 458.031 246.835C461.253 246.995 462.507 248.203 463.08 250.126C463.563 251.752 463.345 254.216 463.439 257.553C463.532 260.899 463.369 279.595 463.045 300.586C462.63 327.458 461.968 358.094 461.762 365.053C461.663 368.165 460.986 369.958 459.942 371.042C458.669 372.364 456.721 372.754 453.938 372.839C450.964 372.93 449.136 372.842 447.29 371.879C445.443 370.917 443.547 369.006 440.408 365.149C438.254 362.503 435.817 358.862 433.637 355.333C430.989 351.049 428.717 346.934 427.771 344.998C427.023 343.467 426.702 342.14 426.593 340.845C426.439 339.004 426.751 337.231 426.815 334.922C426.847 333.753 426.995 330.808 427.184 327.322C427.594 319.769 428.194 309.667 428.194 309.667C428.229 309.028 428.775 308.538 429.413 308.573C430.049 308.608 430.539 309.155 430.504 309.793C430.504 309.793 430 319.894 429.657 327.445C429.501 330.903 429.378 333.824 429.355 334.982C429.313 337.179 429.013 338.867 429.174 340.617C429.267 341.622 429.531 342.648 430.123 343.833C431.064 345.717 433.325 349.719 435.947 353.888C438.089 357.293 440.471 360.811 442.579 363.363C445.367 366.74 446.975 368.486 448.607 369.323C450.059 370.068 451.508 370.009 453.84 369.922C454.758 369.888 455.563 369.838 456.258 369.706C456.899 369.583 457.427 369.402 457.812 368.997C458.498 368.275 458.725 367.028 458.776 364.968C458.91 359.843 459.187 341.867 459.521 322.017C459.769 307.223 460.052 291.389 460.244 279.056C460.416 267.983 460.53 259.739 460.483 257.628C460.416 254.63 460.709 252.415 460.283 250.953C460.032 250.09 459.323 249.805 457.88 249.725C455.275 249.579 452.912 249.424 450.885 249.72C449.465 249.927 448.223 250.353 447.227 251.258C446.317 252.085 444.878 253.726 443.253 255.674C440.15 259.394 436.402 264.209 434.314 266.824C433.003 268.466 432.242 270.363 431.779 272.192C431.172 274.589 431.07 276.881 430.982 278.426L430.319 299.109C430.304 299.757 429.766 300.271 429.118 300.256C428.472 300.24 427.958 299.702 427.974 299.053Z" fill="#1D1D1D"></path> <path fill-rule="evenodd" clip-rule="evenodd" d="M450.719 255.617C450.719 255.617 451.005 280.916 450.694 309.478C450.491 328.077 449.971 348.055 449.26 363.338C449.235 363.886 448.771 364.311 448.224 364.286C447.676 364.262 447.252 363.797 447.277 363.249C447.673 353.807 447.937 342.571 448.167 330.977C448.368 320.886 448.522 310.523 448.667 300.837C449.039 276.006 449.242 255.618 449.242 255.618C449.242 255.21 449.573 254.878 449.98 254.878C450.388 254.878 450.719 255.209 450.719 255.617Z" fill="#1D1D1D"></path> <path fill-rule="evenodd" clip-rule="evenodd" d="M370.287 198.453C373.35 203.05 375.186 207.444 375.996 211.709C376.626 215.024 376.642 218.26 376.189 221.433C374.671 232.061 367.754 242.033 360.236 252.627C359.946 253.049 359.369 253.157 358.947 252.867C358.526 252.577 358.418 251.999 358.708 251.576C365.615 241.121 372.027 231.337 373.204 221.048C373.531 218.19 373.431 215.297 372.836 212.328C372.057 208.442 370.423 204.424 367.638 200.22C367.151 199.487 367.349 198.497 368.081 198.01C368.812 197.522 369.8 197.721 370.287 198.453Z" fill="#1D1D1D"></path> <path fill-rule="evenodd" clip-rule="evenodd" d="M352.814 263.281C350.305 267.327 347.984 271.458 346.118 275.715C344.23 280.02 342.81 284.455 342.148 289.069C340.205 302.497 344.151 314.148 350.651 322.961C354.355 327.984 358.89 332.079 363.644 335.054C369.157 338.504 374.958 340.453 380.088 340.48C387.146 340.531 392.614 339.459 397.207 337.818C402.934 335.77 407.311 332.844 411.71 330.127C418.41 325.991 425.153 322.317 436.201 322.415C437.079 322.422 437.787 323.142 437.78 324.021C437.774 324.901 437.055 325.61 436.177 325.604C425.894 325.539 419.646 329.035 413.417 332.897C408.84 335.735 404.269 338.764 398.305 340.899C393.412 342.651 387.587 343.804 380.064 343.749C374.411 343.696 367.991 341.606 361.944 337.756C356.903 334.546 352.114 330.124 348.244 324.716C341.501 315.293 337.529 302.883 339.828 288.712C340.457 284.862 341.584 281.139 343.071 277.52C345.228 272.268 348.135 267.232 351.319 262.329C351.581 261.915 352.129 261.793 352.541 262.056C352.954 262.319 353.076 262.868 352.814 263.281Z" fill="#1D1D1D"></path> </svg> 